<?xml version="1.0" standalone="no"?>
<!DOCTYPE svg PUBLIC "-//W3C//DTD SVG 20010904//EN"
 "http://www.w3.org/TR/2001/REC-SVG-20010904/DTD/svg10.dtd">
<svg version="1.0" xmlns="http://www.w3.org/2000/svg"
 width="510.000000pt" height="480.000000pt" viewBox="0 0 510.000000 480.000000"
 preserveAspectRatio="xMidYMid meet">

<g transform="translate(0.000000,480.000000) scale(0.100000,-0.100000)"
fill="#000000" stroke="none">
<path d="M2280 4555 c-159 -28 -209 -41 -350 -90 -125 -44 -265 -107 -338
-152 -29 -18 -54 -33 -56 -33 -11 0 -140 -91 -221 -155 -297 -236 -527 -556
-658 -915 -56 -155 -70 -203 -98 -355 -20 -105 -23 -151 -23 -365 1 -227 3
-255 28 -380 32 -155 97 -358 156 -486 43 -94 128 -244 138 -244 3 0 44 7 91
15 223 39 220 39 259 27 73 -22 130 -112 117 -184 -5 -31 -2 -35 42 -63 56
-35 89 -89 99 -159 5 -42 13 -57 45 -84 44 -38 63 -87 55 -144 -5 -37 -3 -44
28 -72 27 -25 48 -66 102 -206 72 -188 96 -222 158 -234 43 -8 80 6 102 40 23
34 14 73 -55 253 -52 134 -57 161 -34 168 13 5 45 -59 89 -171 67 -176 94
-232 126 -259 75 -63 190 1 175 98 -5 26 -112 265 -152 337 -19 33 -19 68 -1
68 20 0 42 -34 116 -175 149 -287 163 -305 225 -305 53 0 105 50 105 101 0 11
-38 94 -85 184 -47 91 -85 171 -85 179 0 11 20 26 35 26 2 0 10 -12 18 -28 8
-15 35 -67 61 -117 134 -253 137 -256 209 -276 53 -14 99 3 142 54 29 33 35
49 35 85 0 41 -33 121 -52 130 -5 2 -8 8 -8 13 0 15 -339 563 -364 588 -22 22
-40 25 -217 42 -202 19 -256 33 -343 87 -58 36 -117 102 -151 168 -16 33 -34
62 -40 66 -5 4 -10 39 -10 77 0 60 3 73 25 96 43 46 58 50 225 55 l160 5 -49
53 c-86 92 -201 142 -328 142 -37 0 -130 -7 -207 -16 -128 -15 -144 -15 -194
0 -58 17 -115 64 -143 119 -42 80 -58 382 -30 557 50 309 174 562 393 800 63
69 65 72 24 43 -24 -18 -74 -61 -110 -97 -220 -214 -326 -358 -447 -611 -29
-60 -53 -101 -53 -90 -1 35 56 255 89 345 37 99 119 274 131 278 5 2 9 9 9 15
0 15 109 181 121 185 5 2 9 10 9 17 0 7 3 15 8 17 4 2 25 26 46 53 127 161
333 333 551 457 395 225 913 295 1378 187 321 -75 648 -256 891 -492 38 -37
71 -66 72 -64 9 9 -224 254 -316 332 -265 228 -603 386 -974 456 -86 17 -161
22 -336 25 -203 3 -238 1 -360 -21z"/>
</g>
</svg>
