<?xml version="1.0" standalone="no"?>
<!DOCTYPE svg PUBLIC "-//W3C//DTD SVG 20010904//EN"
 "http://www.w3.org/TR/2001/REC-SVG-20010904/DTD/svg10.dtd">
<svg version="1.0" xmlns="http://www.w3.org/2000/svg"
 width="510.000000pt" height="480.000000pt" viewBox="0 0 510.000000 480.000000"
 preserveAspectRatio="xMidYMid meet">

<g transform="translate(0.000000,480.000000) scale(0.100000,-0.100000)"
fill="#000000" stroke="none">
<path d="M2415 4570 c-224 -20 -480 -94 -700 -200 -950 -458 -1409 -1542
-1074 -2534 46 -137 168 -393 204 -426 26 -24 17 -25 208 11 62 12 139 11 171
-1 62 -23 106 -93 106 -170 0 -35 5 -42 45 -70 51 -35 82 -89 92 -157 5 -38
14 -55 44 -83 46 -43 61 -79 58 -144 -3 -44 0 -52 28 -75 24 -20 46 -62 93
-180 33 -84 69 -170 80 -190 34 -66 112 -91 163 -51 44 35 42 56 -23 231 -61
165 -71 209 -46 209 21 0 27 -12 105 -200 93 -224 88 -214 121 -233 46 -28
101 -22 135 13 52 54 50 61 -111 396 -39 80 -40 89 -17 98 21 9 34 -5 73 -79
18 -33 48 -89 68 -125 104 -194 127 -235 144 -252 18 -18 79 -25 113 -12 20 8
45 56 45 88 0 13 -36 95 -80 181 -83 162 -96 205 -60 205 22 0 57 -50 96 -135
45 -98 131 -239 158 -260 19 -14 43 -20 76 -20 55 0 91 21 128 76 34 49 25 90
-46 206 -33 54 -97 159 -142 233 -46 74 -109 178 -141 230 -84 138 -86 140
-215 151 -270 23 -295 27 -371 65 -41 21 -93 58 -122 87 -59 59 -141 209 -141
256 0 46 23 93 59 124 32 27 33 27 192 27 104 0 159 4 159 10 0 22 -99 109
-157 138 -92 47 -157 56 -308 42 -72 -6 -159 -14 -195 -17 -85 -7 -141 9 -192
55 -53 48 -74 97 -89 207 -40 309 12 615 151 881 75 143 133 225 234 332 65
69 67 83 3 25 -255 -232 -376 -389 -508 -658 -61 -124 -69 -136 -69 -103 0 56
55 256 106 386 96 246 225 443 418 636 193 195 325 290 546 395 162 77 274
114 466 153 95 19 140 22 359 22 218 0 264 -3 360 -22 369 -74 679 -232 955
-488 71 -66 79 -72 51 -34 -62 82 -255 264 -361 341 -297 214 -553 324 -910
389 -121 23 -397 33 -535 20z"/>
</g>
</svg>
